<svg width="24" height="24" viewBox="0 0 24 24" fill="none" xmlns="http://www.w3.org/2000/svg">
<path d="M2.00317 6C2.00317 3.79086 3.79403 2 6.00317 2H18.0032C20.2123 2 22.0032 3.79086 22.0032 6V18C22.0032 20.2091 20.2123 22 18.0032 22H6.00317C3.79403 22 2.00317 20.2091 2.00317 18V6Z" stroke="black" stroke-width="2" stroke-linecap="round" stroke-linejoin="round"/>
<path d="M12.0033 16.4445C14.4579 16.4445 16.4477 14.4547 16.4477 12.0001C16.4477 9.54551 14.4579 7.55566 12.0033 7.55566C9.54868 7.55566 7.55884 9.54551 7.55884 12.0001C7.55884 14.4547 9.54868 16.4445 12.0033 16.4445Z" stroke="black" stroke-width="2" stroke-linecap="round" stroke-linejoin="round"/>
<path d="M18.0032 6.0217V6" stroke="black" stroke-width="2" stroke-linecap="round" stroke-linejoin="round"/>
</svg>
